<?xml version="1.0" encoding="UTF-8" standalone="no"?>
<svg width="1200pt" height="1200pt" version="1.1" viewBox="0 0 1200 1200" id="svg12" sodipodi:docname="logo.svg"
    inkscape:version="1.2.2 (732a01da63, 2022-12-09)" xmlns:inkscape="http://www.inkscape.org/namespaces/inkscape"
    xmlns:sodipodi="http://sodipodi.sourceforge.net/DTD/sodipodi-0.dtd" xmlns="http://www.w3.org/2000/svg"
    xmlns:svg="http://www.w3.org/2000/svg">
    <defs id="defs16" />
    <sodipodi:namedview id="namedview14" pagecolor="#ffffff" bordercolor="#000000" borderopacity="0.25"
        inkscape:showpageshadow="2" inkscape:pageopacity="0.0" inkscape:pagecheckerboard="0"
        inkscape:deskcolor="#d1d1d1" inkscape:document-units="pt" showgrid="false" inkscape:zoom="0.1475"
        inkscape:cx="-1138.9831" inkscape:cy="891.52542" inkscape:window-width="1608" inkscape:window-height="711"
        inkscape:window-x="0" inkscape:window-y="44" inkscape:window-maximized="0" inkscape:current-layer="svg12" />
    <path stroke="#000000" fill="#ff5d01"
        d="m 67,25.281 c -318.36,427.66 597.47,645.24 666.21,931.23 C 705.351,493.431 -89.3,493.361 67,25.281 Z"
        id="path2" style="fill-rule:evenodd" />
    <path stroke="#000000" fill="#ffffff"
        d="m 278.03,620.2 c 16.875,84.355 65.164,160.92 148.31,160.92 39.188,0 257.37,239.29 245.81,288.43 -23.297,98.98 -139.29,2.668 -133.64,-105.69 -100.14,191.49 157.18,291.15 207.62,130.92 C 794.036,942.61 392.69,626.64 278.04,620.21 Z"
        id="path4" style="fill-rule:evenodd" />
    <path stroke="#000000" fill="#ffffff"
        d="m 998.27,610.67 c 0.54297,57.547 -77.883,178.55 -149.62,144.81 -10.188,-4.793 -93.289,101.58 -99.551,71.09 -2.5547,-12.445 -7.668,-37.336 -10.734,-51.652 -11.926,-55.637 252.73,-172.55 259.91,-164.25 z"
        id="path6" style="fill-rule:evenodd" />
    <path stroke="#000000" fill="#ffffff"
        d="m 641.8,643.38 c 9.543,14.656 34.773,39.887 47.391,52.504 1.9648,1.9688 727.37,-213.93 445.93,-659.57 150.48,470.92 -553.61,514.48 -493.32,607.07 z"
        id="path8" style="fill-rule:evenodd" />
</svg>
